<svg width="512" height="512" viewBox="0 0 512 512" fill="none" xmlns="http://www.w3.org/2000/svg">
  <!-- Lightbulb outline representing insights -->
  <path d="M256 80C203.579 80 161 122.579 161 175C161 207.5 175.5 236.5 198 255.5V310C198 321.046 206.954 330 218 330H294C305.046 330 314 321.046 314 310V255.5C336.5 236.5 351 207.5 351 175C351 122.579 308.421 80 256 80Z" stroke="black" stroke-width="16" stroke-linecap="round" stroke-linejoin="round"/>
  
  <!-- Filament - bar chart inside -->
  <rect x="230" y="160" width="14" height="60" fill="black" rx="2"/>
  <rect x="252" y="140" width="14" height="80" fill="black" rx="2"/>
  <rect x="274" y="150" width="14" height="70" fill="black" rx="2"/>
  
  <!-- Base of bulb -->
  <rect x="218" y="330" width="76" height="20" fill="black" rx="4"/>
  <rect x="228" y="350" width="56" height="16" fill="black" rx="3"/>
  <rect x="238" y="366" width="36" height="14" fill="black" rx="3"/>
  
  <!-- Spark/insight rays -->
  <line x1="140" y1="140" x2="165" y2="165" stroke="black" stroke-width="12" stroke-linecap="round"/>
  <line x1="372" y1="140" x2="347" y2="165" stroke="black" stroke-width="12" stroke-linecap="round"/>
  <line x1="120" y1="175" x2="155" y2="175" stroke="black" stroke-width="12" stroke-linecap="round"/>
  <line x1="392" y1="175" x2="357" y2="175" stroke="black" stroke-width="12" stroke-linecap="round"/>
</svg>
